<svg width="38" height="38" viewBox="0 0 38 38" fill="none" xmlns="http://www.w3.org/2000/svg">
<g filter="url(#filter0_d_213_20)">
<circle cx="19" cy="16" r="16" fill="#2A45C2"/>
</g>
<ellipse cx="19" cy="15.2906" rx="16" ry="15.2906" fill="#4664F4"/>
<ellipse cx="19" cy="15.2906" rx="16" ry="15.2906" fill="url(#paint0_linear_213_20)"/>
<ellipse cx="19.0001" cy="15.6059" rx="12.2828" ry="11.9803" fill="#BABFD4"/>
<ellipse cx="19.0001" cy="16.2365" rx="12.2828" ry="11.3498" fill="url(#paint1_linear_213_20)"/>
<path d="M23.772 12.5041C23.6815 12.4702 23.5872 12.4556 23.5003 12.4615C23.3746 12.4701 23.2731 12.5201 23.2129 12.6019C22.8588 13.088 22.5687 14.0059 22.3348 14.7435C22.2274 15.0846 22.0833 15.541 21.9789 15.7577C21.8701 15.1507 21.993 12.9274 22.0407 12.0711L22.0415 12.0573C22.0746 11.4624 22.079 11.3581 22.0718 11.3123C22.0192 10.986 21.8858 10.7718 21.6749 10.6759C21.4617 10.5787 21.1848 10.6217 20.8866 10.7975C20.7371 10.8861 20.6957 11.1902 20.5674 12.5685L20.5669 12.5746C20.4962 13.3318 20.3336 15.0753 20.1334 15.3657C19.9075 14.9594 19.5968 12.6513 19.4627 11.6522C19.3688 10.9525 19.3141 10.5507 19.2774 10.4294C19.2 10.1752 18.8734 9.95889 18.55 9.9469C18.2808 9.93382 18.06 10.068 17.9546 10.301C17.7574 10.516 17.827 11.229 18.045 12.9177C18.1488 13.7214 18.3629 15.3815 18.2282 15.5677C17.9594 15.5391 17.498 14.4992 16.8567 12.4761C16.6768 11.9096 16.6211 11.7392 16.5658 11.6646C16.4569 11.4047 16.0866 11.2043 15.7546 11.227C15.7263 11.2289 15.6987 11.2325 15.6715 11.2376C15.4977 11.2714 15.1012 11.4281 15.1857 12.1513C15.4199 13.1539 15.6742 13.89 15.921 14.6045L15.926 14.6188C16.0737 15.0467 16.2133 15.4511 16.3431 15.8998C16.6489 16.9593 16.53 17.6167 16.5285 17.6241C16.5183 17.6918 16.497 17.7331 16.4649 17.7475C16.4534 17.7528 16.4386 17.756 16.4219 17.7571C16.325 17.7637 16.1797 17.7009 16.1048 17.6599C15.9337 17.3395 15.0817 15.8125 14.3097 15.6007L14.282 15.5927L14.2539 15.5952C13.9707 15.6214 13.7626 15.7263 13.6353 15.9068C13.4337 16.1923 13.5172 16.556 13.5374 16.6289L13.5488 16.655C13.5551 16.666 14.1742 17.7717 14.27 18.2861C14.3526 18.7271 14.7801 19.2051 15.1238 19.5891L15.1379 19.6047C15.25 19.7303 15.3468 19.8389 15.4231 19.9394C16.4203 20.9585 17.9974 21.8156 18.0103 21.8225C18.2071 21.9648 18.3165 22.1022 18.328 22.2206C18.3354 22.298 18.2943 22.3443 18.2929 22.3459L18.2585 22.381L18.4765 22.5886L22.6373 22.3022L22.8147 21.5058C23.3632 19.2566 23.2487 17.3389 23.2469 17.3261C23.2489 17.2555 23.4027 16.5732 23.5263 16.0219L23.5299 16.0079C23.7764 14.9096 24.0829 13.543 24.1417 13.0233C24.1673 12.8011 24.0221 12.5969 23.772 12.5041Z" fill="#3B4262"/>
<defs>
<filter id="filter0_d_213_20" x="0" y="0" width="38" height="38" filterUnits="userSpaceOnUse" color-interpolation-filters="sRGB">
<feFlood flood-opacity="0" result="BackgroundImageFix"/>
<feColorMatrix in="SourceAlpha" type="matrix" values="0 0 0 0 0 0 0 0 0 0 0 0 0 0 0 0 0 0 127 0" result="hardAlpha"/>
<feOffset dy="3"/>
<feGaussianBlur stdDeviation="1.5"/>
<feColorMatrix type="matrix" values="0 0 0 0 0 0 0 0 0 0 0 0 0 0 0 0 0 0 0.196706 0"/>
<feBlend mode="normal" in2="BackgroundImageFix" result="effect1_dropShadow_213_20"/>
<feBlend mode="normal" in="SourceGraphic" in2="effect1_dropShadow_213_20" result="shape"/>
</filter>
<linearGradient id="paint0_linear_213_20" x1="3" y1="0" x2="3" y2="30.5813" gradientUnits="userSpaceOnUse">
<stop stop-color="white" stop-opacity="0.0966455"/>
<stop offset="1" stop-color="white" stop-opacity="0.01"/>
</linearGradient>
<linearGradient id="paint1_linear_213_20" x1="31.0794" y1="27.5862" x2="31.0794" y2="5.26297" gradientUnits="userSpaceOnUse">
<stop stop-color="#F3F3F3"/>
<stop offset="1" stop-color="#DADADA"/>
</linearGradient>
</defs>
</svg>
